<svg  xmlns="http://www.w3.org/2000/svg" width="118" height="94" viewBox="0 0 118 94"
fill="currentColor" class="bi bi-6-circle-fill">
<path d="M4710 8643 c-464 -22 -996 -129 -1433 -288 -1105 -403 -2002 -1156
-2606 -2190 -616 -1053 -813 -2263 -568 -3485 22 -107 30 -166 23 -167 -6 -1
-29 -5 -51 -9 l-40 -8 54 -6 54 -5 33 -123 c195 -713 553 -1378 1052 -1950
153 -175 399 -419 411 -407 5 6 292 519 637 1140 344 622 628 1131 629 1133 1
1 816 -58 1811 -132 995 -73 1811 -132 1813 -130 3 2 -177 187 -399 409 -223
224 -399 409 -394 414 5 4 213 32 463 61 428 50 455 52 467 36 7 -10 373 -669
815 -1464 441 -796 806 -1451 811 -1457 12 -13 333 312 468 475 415 499 717
1038 914 1632 417 1254 321 2610 -268 3786 -485 969 -1280 1757 -2251 2232
-233 114 -390 179 -617 254 -577 193 -1208 279 -1828 249z m240 -718 c0 -2
-532 -962 -1181 -2132 -650 -1170 -1303 -2347 -1452 -2615 -256 -462 -272
-488 -301 -493 -72 -11 -1149 -106 -1153 -101 -11 10 -64 244 -88 381 -39 232
-49 371 -49 710 -1 342 9 467 60 745 152 838 543 1599 1134 2204 174 179 330
317 500 443 63 47 129 97 145 110 47 37 212 145 300 195 547 312 1179 503
1810 547 132 10 275 13 275 6z m465 -20 c1121 -117 2167 -692 2872 -1581 507
-637 809 -1375 905 -2209 12 -107 19 -707 8 -719 -7 -7 -1763 124 -1772 132
-8 9 -2427 4368 -2435 4389 -6 15 8 15 138 9 79 -4 207 -13 284 -21z m222
-3114 c359 -646 651 -1176 648 -1179 -3 -3 -482 30 -1065 73 -583 43 -1063 75
-1067 72 -3 -4 64 -80 149 -169 505 -531 599 -633 584 -636 -18 -4 -1690 -160
-1693 -158 -1 1 395 716 880 1589 608 1096 885 1587 896 1585 8 -2 308 -531
668 -1177z m3553 -1556 c0 -13 -7 -75 -15 -137 -56 -408 -199 -877 -386 -1258
-74 -153 -200 -380 -210 -380 -6 0 -901 1611 -897 1615 2 1 338 43 748 93 410
49 748 90 753 91 4 0 7 -10 7 -24z m-7765 -845 c231 -17 423 -32 427 -33 4 -1
-105 -206 -243 -455 l-251 -453 -22 33 c-79 118 -240 437 -311 618 -35 86
-115 315 -115 326 0 3 21 2 48 -1 26 -3 236 -19 467 -35z"/>
</svg>
